<?xml version="1.0" encoding="UTF-8" standalone="no"?>
<!-- Created with Inkscape (http://www.inkscape.org/) -->

<svg
   version="1.1"
   id="svg1"
   width="80.674644"
   height="74.236595"
   viewBox="0 0 80.674644 74.236595"
   sodipodi:docname="Icono2-Cerebro.svg"
   inkscape:version="1.3.2 (091e20e, 2023-11-25, custom)"
   xmlns:inkscape="http://www.inkscape.org/namespaces/inkscape"
   xmlns:sodipodi="http://sodipodi.sourceforge.net/DTD/sodipodi-0.dtd"
   xmlns="http://www.w3.org/2000/svg"
   xmlns:svg="http://www.w3.org/2000/svg">
  <defs
     id="defs1" />
  <sodipodi:namedview
     id="namedview1"
     pagecolor="#ffffff"
     bordercolor="#000000"
     borderopacity="0.25"
     inkscape:showpageshadow="2"
     inkscape:pageopacity="0.0"
     inkscape:pagecheckerboard="0"
     inkscape:deskcolor="#d1d1d1"
     inkscape:zoom="6.0979021"
     inkscape:cx="40.505734"
     inkscape:cy="34.192087"
     inkscape:window-width="1280"
     inkscape:window-height="971"
     inkscape:window-x="-8"
     inkscape:window-y="-8"
     inkscape:window-maximized="1"
     inkscape:current-layer="g1" />
  <g
     inkscape:groupmode="layer"
     inkscape:label="Image"
     id="g1"
     transform="translate(-36.077666,-36.028593)">
    <path
       style="display:inline;fill:none;stroke:#ad88b5;stroke-width:3;stroke-linecap:round;stroke-linejoin:miter;stroke-opacity:1"
       d="m 73.303899,44.277523 c 9.821542,-13.188962 26.808641,-4.834098 27.878441,5.739679 9.27523,2.987236 11.22724,8.840077 10.49541,15.743119 3.25247,5.530129 6.55991,13.975754 -1.14793,16.727065 -1.61121,16.182301 -15.267451,11.878279 -19.350921,10.495412 L 93.638762,106.59404 75.599771,92.162844 C 60.861832,91.856113 62.291156,84.375172 62.644495,81.33945 60.17129,82.414428 40.555511,89.803301 37.717889,70.352065 37.135693,63.90332 37.690205,52.89961 53.952982,49.525229 c 0.0083,-5.982855 8.268568,-8.428609 19.350917,-5.247706 z"
       id="path1"
       sodipodi:nodetypes="ccccccccccc" />
    <path
       style="display:inline;fill:none;stroke:#ad88b5;stroke-width:2;stroke-linecap:round;stroke-linejoin:miter;stroke-dasharray:none;stroke-opacity:1"
       d="m 52.149083,66.744266 c -5.247707,0.327982 -10.058105,1.530582 -14.431194,3.607799"
       id="path2"
       sodipodi:nodetypes="cc" />
    <path
       style="display:inline;fill:none;stroke:#ad88b5;stroke-width:2;stroke-linecap:round;stroke-linejoin:miter;stroke-dasharray:none;stroke-opacity:1"
       d="m 44.933486,61.49656 c 0.956246,7.661239 3.33066,13.141052 8.215597,14.759174"
       id="path3"
       sodipodi:nodetypes="cc" />
    <path
       style="fill:none;stroke:#ad88b5;stroke-width:2;stroke-linecap:round;stroke-linejoin:miter;stroke-dasharray:none;stroke-opacity:1"
       d="m 58.216744,62.644495 c 1.503249,-4.482416 2.924502,-6.058117 5.739678,-9.511468 -0.395557,7.363533 -0.0039,17.855741 12.87328,16.399083 0.627851,2.475918 5.967507,2.091618 11.561354,0.02513 -6.29312,7.698493 -15.706803,-2.433714 -19.514909,1.794824 6.241922,-1.90195 -11.135466,-2.475917 -5.224953,-15.752365 0.09821,2.274632 -5.43445,7.044795 -5.43445,7.044796 z"
       id="path4"
       sodipodi:nodetypes="ccccccc" />
    <path
       style="fill:none;stroke:#ad88b5;stroke-width:2;stroke-linecap:round;stroke-linejoin:miter;stroke-dasharray:none;stroke-opacity:1"
       d="m 86.273515,50.790053 c -3.280195,-1.376564 -6.471219,0.787419 -8.941618,3.888998 2.950761,0.147408 6.550357,1.275345 7.55011,0.865322 -12.78194,-4.026889 -11.692473,4.768198 -12.059739,6.288792"
       id="path5"
       sodipodi:nodetypes="cccc" />
    <path
       style="fill:none;stroke:#ad88b5;stroke-width:2;stroke-linecap:round;stroke-linejoin:miter;stroke-dasharray:none;stroke-opacity:1"
       d="m 73.799978,87.780982 c -0.285553,1.426866 -1.97771,3.461845 -4.203056,3.708008"
       id="path6"
       sodipodi:nodetypes="cc" />
    <path
       style="fill:none;stroke:#ad88b5;stroke-width:2;stroke-linecap:round;stroke-linejoin:miter;stroke-dasharray:none;stroke-opacity:1"
       d="m 74.799978,77.255734 c 2.280831,5.566084 11.12536,7.036805 15.764021,1.016608"
       id="path7"
       sodipodi:nodetypes="cc" />
    <path
       style="fill:none;stroke:#ad88b5;stroke-width:2;stroke-linecap:round;stroke-linejoin:miter;stroke-dasharray:none;stroke-opacity:1"
       d="M 90.317947,91.465883 C 103.00053,86.673566 104.01226,73.146889 92.999138,67.488152 l 5.334115,-1.043631 C 92.960455,62.054152 89.184986,61.040254 86.737351,62.833165"
       id="path8"
       sodipodi:nodetypes="cccc" />
    <path
       style="fill:none;stroke:#ad88b5;stroke-width:2;stroke-linecap:round;stroke-linejoin:miter;stroke-dasharray:none;stroke-opacity:1"
       d="m 54.1849,50.220983 c 1.618362,-0.35313 3.649447,0.05845 5.30208,0.366466"
       id="path9"
       sodipodi:nodetypes="cc" />
    <path
       style="fill:none;stroke:#ad88b5;stroke-width:2;stroke-linecap:round;stroke-linejoin:miter;stroke-dasharray:none;stroke-opacity:1"
       d="m 111.56179,66.456075 c -2.21669,-2.295838 -4.13131,-3.798459 -6.03908,-3.62291"
       id="path10"
       sodipodi:nodetypes="cc" />
    <path
       style="fill:none;stroke:#ad88b5;stroke-width:2;stroke-linecap:round;stroke-linejoin:miter;stroke-dasharray:none;stroke-opacity:1"
       d="m 101.18234,49.40871 c 2.49014,0.953418 -2.4267,-0.640857 -5.864022,-0.941032"
       id="path11"
       sodipodi:nodetypes="cc" />
  </g>
</svg>
